<svg width="14" height="14" viewBox="0 0 14 14" fill="none" xmlns="http://www.w3.org/2000/svg">
<g id="download-button-svgrepo-com 1" clip-path="url(#clip0_35_27)">
<g id="Group">
<path id="Vector" d="M11.891 8.92212V12.1202H2.10855V8.92212H0.228367V13.0603C0.228367 13.5791 0.648676 13.9999 1.16986 13.9999H12.8297C13.3504 13.9999 13.7712 13.5796 13.7712 13.0603V8.92212H11.891Z" fill="white"/>
<path id="Vector_2" d="M6.82767 8.60511L4.13583 5.35239C4.13583 5.35239 3.72627 4.96571 4.17039 4.96571C4.61452 4.96571 5.68724 4.96571 5.68724 4.96571C5.68724 4.96571 5.68724 4.70558 5.68724 4.30442C5.68724 3.16072 5.68724 1.07926 5.68724 0.230703C5.68724 0.230703 5.62699 0 5.97445 0C6.32471 0 7.85883 0 8.10961 0C8.35993 0 8.35433 0.194276 8.35433 0.194276C8.35433 1.01715 8.35433 3.17053 8.35433 4.27687C8.35433 4.63553 8.35433 4.8681 8.35433 4.8681C8.35433 4.8681 9.21456 4.8681 9.75442 4.8681C10.2933 4.8681 9.88752 5.273 9.88752 5.273C9.88752 5.273 7.5973 8.31323 7.27787 8.6322C7.0481 8.86337 6.82767 8.60511 6.82767 8.60511Z" fill="white"/>
</g>
</g>
<defs>
<clipPath id="clip0_35_27">
<rect width="14" height="14" fill="white"/>
</clipPath>
</defs>
</svg>
