<svg width="12" height="13" viewBox="0 0 12 13" fill="none" xmlns="http://www.w3.org/2000/svg">
<path d="M0 6.5C0 5.412 0.268008 4.408 0.804 3.488C1.34 2.568 2.06801 1.84 2.988 1.304C3.908 0.767996 4.91201 0.5 6 0.5C7.088 0.5 8.09201 0.767996 9.012 1.304C9.932 1.84 10.66 2.568 11.196 3.488C11.732 4.408 12 5.412 12 6.5C12 7.588 11.732 8.592 11.196 9.512C10.66 10.432 9.932 11.16 9.012 11.696C8.09201 12.232 7.088 12.5 6 12.5C4.91201 12.5 3.908 12.232 2.988 11.696C2.06801 11.16 1.34 10.432 0.804 9.512C0.268008 8.592 0 7.588 0 6.5ZM0.996 6.5C0.996 7.748 1.416 8.848 2.256 9.8C2.64 9.048 3.248 8.332 4.08 7.652C4.91201 6.972 5.724 6.544 6.516 6.368C6.396 6.088 6.28001 5.836 6.168 5.612C4.79201 6.052 3.30401 6.272 1.704 6.272C1.392 6.272 1.16 6.268 1.008 6.26C1.008 6.292 1.00601 6.332 1.002 6.38C0.998004 6.428 0.996 6.468 0.996 6.5ZM1.152 5.264C1.328 5.28 1.58801 5.288 1.932 5.288C3.26801 5.288 4.536 5.108 5.736 4.748C5.12801 3.668 4.46 2.768 3.732 2.048C3.10001 2.368 2.558 2.812 2.106 3.38C1.65401 3.948 1.33601 4.576 1.152 5.264ZM2.94 10.448C3.84401 11.152 4.86401 11.504 6 11.504C6.59201 11.504 7.18001 11.392 7.764 11.168C7.604 9.8 7.292 8.476 6.828 7.196C6.092 7.356 5.35001 7.76 4.602 8.408C3.854 9.056 3.3 9.736 2.94 10.448ZM4.776 1.664C5.48 2.392 6.132 3.3 6.732 4.388C7.82 3.932 8.64 3.352 9.192 2.648C8.264 1.88 7.2 1.496 6 1.496C5.592 1.496 5.184 1.552 4.776 1.664ZM7.164 5.24C7.284 5.496 7.42001 5.82 7.572 6.212C8.16401 6.156 8.808 6.128 9.504 6.128C10 6.128 10.492 6.14 10.98 6.164C10.916 5.076 10.524 4.108 9.804 3.26C9.284 4.036 8.40401 4.696 7.164 5.24ZM7.872 7.052C8.28 8.236 8.556 9.452 8.7 10.7C9.332 10.292 9.848 9.768 10.248 9.128C10.648 8.488 10.888 7.796 10.968 7.052C10.384 7.012 9.852 6.992 9.372 6.992C8.93201 6.992 8.432 7.012 7.872 7.052Z" fill="white"/>
</svg>
