<svg width="12" height="13" viewBox="0 0 12 13" fill="currentColor" xmlns="http://www.w3.org/2000/svg">
<path fill-rule="evenodd" clip-rule="evenodd" d="M6 0.5C2.685 0.5 0 3.25291 0 6.65176C0 9.37392 1.7175 11.6731 4.1025 12.4882C4.4025 12.5421 4.515 12.3575 4.515 12.196C4.515 12.0499 4.5075 11.5655 4.5075 11.0503C3 11.3348 2.61 10.6735 2.49 10.3274C2.4225 10.1506 2.13 9.60461 1.875 9.4585C1.665 9.34316 1.365 9.05864 1.8675 9.05095C2.34 9.04326 2.6775 9.49695 2.79 9.68151C3.33 10.612 4.1925 10.3505 4.5375 10.189C4.59 9.78916 4.7475 9.52002 4.92 9.36623C3.585 9.21243 2.19 8.68184 2.19 6.3288C2.19 5.65979 2.4225 5.10613 2.805 4.67551C2.745 4.52171 2.535 3.89116 2.865 3.04529C2.865 3.04529 3.3675 2.88381 4.515 3.67585C4.995 3.53743 5.505 3.46823 6.015 3.46823C6.525 3.46823 7.035 3.53743 7.515 3.67585C8.6625 2.87612 9.165 3.04529 9.165 3.04529C9.495 3.89116 9.285 4.52171 9.225 4.67551C9.6075 5.10613 9.84 5.6521 9.84 6.3288C9.84 8.68953 8.4375 9.21243 7.1025 9.36623C7.32 9.55847 7.5075 9.92758 7.5075 10.5043C7.5075 11.3271 7.5 11.9884 7.5 12.196C7.5 12.3575 7.6125 12.5498 7.9125 12.4882C10.2825 11.6731 12 9.36623 12 6.65176C12 3.25291 9.315 0.5 6 0.5Z" fill="white"/>
</svg>
