<svg width="17" height="18" viewBox="0 0 17 18" fill="none" xmlns="http://www.w3.org/2000/svg">
<g id="eye-svgrepo-com 1" clip-path="url(#clip0_29_26)">
<g id="Group">
<g id="Group_2">
<path id="Vector" d="M8.5 13.6258C6.58833 13.6258 4.5309 12.8782 2.55015 11.4637C1.06944 10.4063 0.155524 9.35876 0.117336 9.31462C-0.0391118 9.13398 -0.0391118 8.86585 0.117336 8.68517C0.155524 8.6411 1.0694 7.59346 2.55015 6.5361C4.53094 5.12173 6.58837 4.37402 8.5 4.37402C10.4117 4.37402 12.4691 5.12169 14.4498 6.5361C15.9306 7.59346 16.8445 8.64106 16.8827 8.68517C17.0391 8.86581 17.0391 9.13394 16.8827 9.31462C16.8445 9.35869 15.9306 10.4063 14.4498 11.4637C12.4691 12.8781 10.4117 13.6258 8.5 13.6258ZM1.13982 8.99995C1.5094 9.3768 2.20692 10.0395 3.12787 10.6948C4.39045 11.5933 6.34735 12.6643 8.5 12.6643C10.6527 12.6643 12.6096 11.5933 13.8721 10.6948C14.793 10.0396 15.4905 9.37684 15.8602 8.99995C15.4906 8.6231 14.7931 7.96043 13.8721 7.30507C12.6096 6.40661 10.6527 5.33555 8.5 5.33555C6.34735 5.33555 4.39045 6.40661 3.12787 7.30507C2.20703 7.96031 1.50948 8.62298 1.13982 8.99995Z" fill="black"/>
</g>
<g id="Group_3">
<g id="Vector_2">
<mask id="path-2-inside-1_29_26" fill="white">
<path d="M8.5 11.9805C6.85653 11.9805 5.5195 10.6435 5.5195 9.00003C5.5195 7.3566 6.85653 6.01953 8.5 6.01953C9.22278 6.01953 9.92003 6.28158 10.4632 6.75746C10.6629 6.93241 10.683 7.23611 10.508 7.43583C10.3331 7.63554 10.0294 7.65558 9.82969 7.48067C9.46187 7.15843 8.98961 6.98098 8.49996 6.98098C7.38664 6.98098 6.48091 7.88675 6.48091 9.00003C6.48091 10.1133 7.38664 11.0191 8.49996 11.0191C9.61332 11.0191 10.519 10.1133 10.519 9.00003C10.519 8.73455 10.7343 8.5193 10.9997 8.5193C11.2652 8.5193 11.4805 8.73455 11.4805 9.00003C11.4805 10.6435 10.1435 11.9805 8.5 11.9805Z"/>
</mask>
<path d="M8.5 11.9805C6.85653 11.9805 5.5195 10.6435 5.5195 9.00003C5.5195 7.3566 6.85653 6.01953 8.5 6.01953C9.22278 6.01953 9.92003 6.28158 10.4632 6.75746C10.6629 6.93241 10.683 7.23611 10.508 7.43583C10.3331 7.63554 10.0294 7.65558 9.82969 7.48067C9.46187 7.15843 8.98961 6.98098 8.49996 6.98098C7.38664 6.98098 6.48091 7.88675 6.48091 9.00003C6.48091 10.1133 7.38664 11.0191 8.49996 11.0191C9.61332 11.0191 10.519 10.1133 10.519 9.00003C10.519 8.73455 10.7343 8.5193 10.9997 8.5193C11.2652 8.5193 11.4805 8.73455 11.4805 9.00003C11.4805 10.6435 10.1435 11.9805 8.5 11.9805Z" fill="black"/>
<path d="M10.4632 6.75746L9.80423 7.50963L9.80428 7.50967L10.4632 6.75746ZM9.82969 7.48067L9.17072 8.23284L9.17077 8.23289L9.82969 7.48067ZM11.4805 9.00003L10.4805 9.00003L10.4805 9.00008L11.4805 9.00003ZM8.5 10.9805C7.40883 10.9805 6.5195 10.0912 6.5195 9.00003H4.5195C4.5195 11.1957 6.30424 12.9805 8.5 12.9805V10.9805ZM6.5195 9.00003C6.5195 7.90888 7.40883 7.01953 8.5 7.01953V5.01953C6.30424 5.01953 4.5195 6.80433 4.5195 9.00003H6.5195ZM8.5 7.01953C8.98062 7.01953 9.44361 7.19369 9.80423 7.50963L11.1222 6.0053C10.3964 5.36948 9.46495 5.01953 8.5 5.01953V7.01953ZM9.80428 7.50967C9.58856 7.3207 9.56687 6.99262 9.75584 6.7769L11.2603 8.09475C11.7991 7.47961 11.7373 6.54412 11.1221 6.00526L9.80428 7.50967ZM9.75584 6.7769C9.94487 6.56111 10.2729 6.53952 10.4886 6.72845L9.17077 8.23289C9.78581 8.77164 10.7213 8.70997 11.2603 8.09475L9.75584 6.7769ZM10.4887 6.7285C9.93819 6.24624 9.23165 5.98098 8.49996 5.98098V7.98098C8.74757 7.98098 8.98556 8.07062 9.17072 8.23284L10.4887 6.7285ZM8.49996 5.98098C6.83434 5.98098 5.48091 7.33447 5.48091 9.00003H7.48091C7.48091 8.43902 7.93894 7.98098 8.49996 7.98098V5.98098ZM5.48091 9.00003C5.48091 10.6656 6.83434 12.0191 8.49996 12.0191V10.0191C7.93894 10.0191 7.48091 9.56104 7.48091 9.00003H5.48091ZM8.49996 12.0191C10.1656 12.0191 11.519 10.6656 11.519 9.00003H9.51901C9.51901 9.56105 9.06101 10.0191 8.49996 10.0191V12.0191ZM11.519 9.00003C11.519 9.28684 11.2865 9.5193 10.9997 9.5193V7.5193C10.182 7.5193 9.51901 8.18227 9.51901 9.00003H11.519ZM10.9997 9.5193C10.7129 9.5193 10.4805 9.28684 10.4805 9.00003H12.4805C12.4805 8.18227 11.8175 7.5193 10.9997 7.5193V9.5193ZM10.4805 9.00008C10.4805 10.0912 9.5912 10.9805 8.5 10.9805V12.9805C10.6957 12.9805 12.4806 11.1958 12.4805 8.99998L10.4805 9.00008Z" fill="black" mask="url(#path-2-inside-1_29_26)"/>
</g>
</g>
<g id="Group_4">
<path id="Vector_3" d="M8.5 9.96148C7.96985 9.96148 7.53854 9.53017 7.53854 9.00003C7.53854 8.46988 7.96985 8.03857 8.5 8.03857C9.03018 8.03857 9.46145 8.46988 9.46145 9.00003C9.46145 9.53017 9.03018 9.96148 8.5 9.96148Z" fill="black"/>
</g>
</g>
</g>
<defs>
<clipPath id="clip0_29_26">
<rect width="17" height="17" fill="white" transform="translate(0 0.5)"/>
</clipPath>
</defs>
</svg>
